<svg viewBox="0 0 886.14228 243.15958" xmlns="http://www.w3.org/2000/svg"><g fill="#fff"><path d="m847.74904 0h38.39324v171.16664h-38.39324z"/><path d="m647.22232 0v171.16664h171.16668v-171.16664zm136.93428 136.9326h-102.70023v-34.23235h102.70023zm0-68.46621h-102.70023v-34.23239h102.70023z"/><path d="m533.05768 0-62.32255 140.33623-71.89139-52.61568 114.01695-87.72055h-55.22448l-96.80137 68.46639v-68.46639h-360.83484v171.16664h34.23235v-136.93264h46.08279v136.93264h34.23218v-136.93264h46.091v136.93264h200.19652v-68.46639l96.20336 68.46639h43.35758l51.66309-119.81559 36.81457 85.58155h-36.81457v34.234h95.01071l-76.00958-171.1666zm-210.22518 136.9326h-127.96012v-34.23235h127.96012zm0-68.46621h-127.96012v-34.23239h127.96012z"/><path d="m6.11113 230.93709v6.11136h24.44544v6.11113h-30.55657v-30.55658h30.55657v6.11136h-24.44544v6.11135h18.33387v6.11136z"/><path d="m61.11314 243.15958v-30.55658h6.11113l18.33385 21.67619v-21.67619h6.11158v30.55656h-6.11158l-18.33385-21.00747v21.00749z"/><path d="m183.33986 212.603h30.55657v6.11136h-24.44543v18.33407h24.44544v6.11113h-30.55658z"/><path d="m244.453 243.15958v-30.55658h30.557v30.55656zm24.44452-6.11113v-18.33407h-18.33385v18.33407z"/><path d="m305.56522 243.15958v-30.55658h6.11159l18.33385 21.67619v-21.67619h6.11159v30.55656h-6.11159l-18.33385-21.00749v21.00749z"/><path d="m397.23629 218.71438h-24.44544v6.11135h24.44544v18.33385h-30.557v-6.11113h24.44541v-6.11136h-24.44543v-18.33409h30.557z"/><path d="m427.7924 212.603h30.557v6.11136h-12.22224v24.4452h-6.11158v-24.4452h-12.22318z"/><path d="m501.12871 230.93709h-6.11158v12.22249h-6.11159v-30.55658h30.557v18.33407h-10.79l10.79 12.22249h-7.54389zm-6.11158-12.22271v6.11135h18.33387v-6.11135z"/><path d="m556.13026 212.603v24.44543h18.33385v-24.44543h6.11159v30.55656h-30.557v-30.55656z"/><path d="m611.13181 212.603h30.557v6.11136h-24.44541v18.33407h24.44543v6.11113h-30.557z"/><path d="m672.245 212.603h30.557v6.11136h-24.44547v18.33407h24.44547v6.11113h-30.557z"/><path d="m751.69284 212.603v30.55656h-6.11159v-30.55656z"/><path d="m809.17663 212.603h15.85161v30.55656h-30.557v-30.55656h8.59476l6.11068-12.22272h6.11158zm9.74 24.44543v-18.33405h-18.33383v18.33407z"/><path d="m855.58526 243.15958v-30.55658h6.11159l18.33385 21.67619v-21.67619h6.11158v30.55656h-6.11158l-18.33385-21.00749v21.00749z"/></g></svg>